<?xml version="1.0" encoding="UTF-8"?>
<svg id="Layer_1" xmlns="http://www.w3.org/2000/svg" version="1.1" xmlns:xlink="http://www.w3.org/1999/xlink" viewBox="0 0 64 64">
  <!-- Generator: Adobe Illustrator 29.1.0, SVG Export Plug-In . SVG Version: 2.1.0 Build 142)  -->
  <defs>
    <style>
      .st0 {
        fill: url(#linear-gradient2);
      }

      .st1 {
        fill: url(#linear-gradient1);
      }

      .st2 {
        fill: url(#linear-gradient);
      }
    </style>
    <linearGradient id="linear-gradient" x1="15.4" y1="70.2" x2="69.3" y2="16.3" gradientUnits="userSpaceOnUse">
      <stop offset=".2" stop-color="#e07000"/>
      <stop offset=".3" stop-color="#d76725"/>
      <stop offset=".5" stop-color="#c25381"/>
      <stop offset=".7" stop-color="#b244c5"/>
      <stop offset=".9" stop-color="#a83bee"/>
      <stop offset=".9" stop-color="#a538ff"/>
    </linearGradient>
    <linearGradient id="linear-gradient1" x1="-1.8" y1="53.5" x2="52.1" y2="-.4" gradientUnits="userSpaceOnUse">
      <stop offset=".1" stop-color="#e07000"/>
      <stop offset=".3" stop-color="#d76726"/>
      <stop offset=".6" stop-color="#c05287"/>
      <stop offset=".9" stop-color="#a538ff"/>
    </linearGradient>
    <linearGradient id="linear-gradient2" x1="5.1" y1="60" x2="59.1" y2="6.1" gradientUnits="userSpaceOnUse">
      <stop offset=".1" stop-color="#e07000"/>
      <stop offset=".4" stop-color="#cb5c57"/>
      <stop offset=".9" stop-color="#a538ff"/>
    </linearGradient>
  </defs>
  <path class="st2" d="M51.9,26c-3.5,4.5-7.6,9.2-12.1,13.7s-9.2,8.7-13.7,12.1c7.3,2.2,15.2.2,20.6-5.2s7.4-13.4,5.2-20.6Z"/>
  <path class="st1" d="M17.3,17.3c-5.9,5.9-7.7,14.6-4.6,22.3,0,0,0,0,0,0,.3.8.7,1.7,1.2,2.4.4.6.7,1.2,1.1,1.8,0,0,0,0,0,.1.7.9,1.4,1.8,2.2,2.6s.5.5.7.7c4.2-2.1,10.4-7,16.3-13s10.9-12.1,13-16.3c-.2-.2-.4-.5-.7-.7-.8-.8-1.7-1.6-2.7-2.2-1.3-1-2.8-1.8-4.3-2.4,0,0,0,0,0,0-7.7-3-16.4-1.2-22.3,4.6Z"/>
  <path class="st0" d="M4.7,59.3c1.7,1.7,8.1,0,18.5-7.8,0,0,0,0,0,0,0,0,0,0,0,0,4.9-3.6,10-8.1,14.9-13s9.4-10.1,13-14.9c0,0,0,0,0,0,0,0,0,0,0,0,7.7-10.4,9.5-16.8,7.8-18.5-1.6-1.6-7.5,0-17.2,6.9.9.4,1.8,1,2.7,1.5,2.4-1.1,4.1-1.1,5-.2,1,1,.9,2.8-.3,5.3-2.1,4.5-7.2,11-13.7,17.5-6.5,6.5-13,11.6-17.5,13.7-1.4.7-2.6,1-3.5,1s-1.4-.2-1.8-.7c-.9-1-.9-2.6.2-5-.6-.8-1.1-1.7-1.5-2.7-6.9,9.7-8.5,15.6-6.9,17.2Z"/>
</svg>